# xmcd
#
# Track frame offsets:
#	150
#	11594
#	27517
#	38747
#	55744
#	66305
#	84246
#	93337
#	106156
#	118092
#	130202
#	144420
#
# Disc length: 2011 seconds
# Revision: 5
# Processed by: cddbd v1.5.2PL0 Copyright (c) Steve Scherf et al.
# Submitted via: dBpowerAMP V12.0
#
DISCID=9907d90c
DTITLE=Kris Kristofferson - Closer to the Bone
DYEAR=2009
DGENRE=Country
TTITLE0=Closer to the Bone
TTITLE1=From Here to Forever
TTITLE2=Holy Woman
TTITLE3=Starlight and Stone
TTITLE4=Sister Sinead
TTITLE5=Hall of Angels
TTITLE6=Love Don't Live Here Anymore
TTITLE7=Good Morning John
TTITLE8=Tell Me One More Time
TTITLE9=Let the Walls Come Down
TTITLE10=The Wonder
TTITLE11=[Untitled Hidden Track]
EXTD=
EXTT0=
EXTT1=
EXTT2=
EXTT3=
EXTT4=
EXTT5=
EXTT6=
EXTT7=
EXTT8=
EXTT9=
EXTT10=
EXTT11=
PLAYORDER=
